<svg width="134" height="134" viewBox="0 0 134 134" fill="none" xmlns="http://www.w3.org/2000/svg">
<g clip-path="url(#clip0_124_605)">
<path d="M84.7868 26.0488C62.2068 26.0488 43.8359 44.4194 43.8359 66.9997C43.8359 77.079 47.5306 86.7652 54.24 94.2745C55.0862 95.2214 56.54 95.3035 57.4877 94.4571C58.4351 93.6107 58.5165 92.1569 57.6704 91.2095C51.7158 84.5448 48.4364 75.9468 48.4364 67C48.4364 46.956 64.7433 30.6491 84.7873 30.6491C104.831 30.6491 121.138 46.956 121.138 67C121.138 87.044 104.831 103.351 84.7871 103.351C77.1569 103.351 69.855 101.014 63.67 96.5917C62.6368 95.8529 61.2005 96.0918 60.4614 97.1251C59.7225 98.1584 59.9612 99.5947 60.9947 100.334C67.9643 105.317 76.1917 107.951 84.7871 107.951C107.368 107.951 125.738 89.5803 125.738 67C125.738 44.4197 107.367 26.0488 84.7868 26.0488Z" fill="#FAF2E9"/>
<path d="M109.258 15.252H9.31954C4.18043 15.252 0 19.4324 0 24.5712V88.6923C0 89.9624 1.02986 90.9923 2.29998 90.9923C3.57011 90.9923 4.59997 89.9624 4.59997 88.6923V24.5712C4.59997 21.9687 6.71701 19.8519 9.31928 19.8519H109.258C110.528 19.8519 111.558 18.8221 111.558 17.5519C111.558 16.2816 110.528 15.252 109.258 15.252Z" fill="#FAF2E9"/>
<path d="M124.68 15.252H117.231C115.961 15.252 114.931 16.2818 114.931 17.5519C114.931 18.8221 115.961 19.8519 117.231 19.8519H124.68C127.283 19.8519 129.4 21.969 129.4 24.5712V109.429C129.4 112.031 127.283 114.148 124.68 114.148H9.31928C6.71675 114.148 4.59997 112.031 4.59997 109.429V96.3591C4.59997 95.089 3.57011 94.0591 2.29998 94.0591C1.02986 94.0591 0 95.089 0 96.3591V109.429C0 114.568 4.18043 118.748 9.31954 118.748H124.681C129.82 118.748 134 114.568 134 109.429V24.5712C134 19.4324 129.819 15.252 124.68 15.252Z" fill="#FAF2E9"/>
<path d="M111.353 55.0152C107.137 52.2719 101.874 51.8505 97.2771 53.8875L90.2353 57.0053C89.3777 56.5358 88.4656 56.1809 87.5177 55.948V35.9987C87.5177 34.7286 86.4878 33.6987 85.2177 33.6987C80.1895 33.6987 75.5498 36.2157 72.8067 40.4314C70.0631 44.6477 69.6417 49.9106 71.679 54.5085L74.7947 61.5456C74.3247 62.4046 73.9693 63.3182 73.7358 64.2677H53.7902V64.268C52.5201 64.268 51.4902 65.2979 51.4902 66.568C51.4902 71.5985 54.0077 76.2398 58.2248 78.9826C60.6726 80.5749 63.4728 81.3844 66.291 81.3841C68.3269 81.3841 70.3722 80.9617 72.3003 80.1067L79.3363 76.9899C80.1966 77.4615 81.11 77.8185 82.0592 78.0519V97.9983C82.0592 99.2684 83.0891 100.298 84.3592 100.298C89.3871 100.298 94.0263 97.7811 96.7697 93.5651C99.5138 89.3477 99.9357 84.084 97.8982 79.4859L94.7819 72.4472C95.2509 71.5891 95.605 70.6772 95.8382 69.7295H115.787C117.057 69.7295 118.087 68.6997 118.087 67.4296C118.086 62.3993 115.569 57.7585 111.353 55.0152ZM70.4363 75.9011C67.2672 77.3066 63.6395 77.0171 60.7334 75.1264C58.4839 73.6629 56.9356 71.4163 56.3504 68.868H73.5584C73.8473 70.5945 74.532 72.2261 75.5456 73.6383L70.4363 75.9011ZM76.6626 42.9405C78.1256 40.6916 80.3712 39.1446 82.9177 38.5591V55.7695C81.1903 56.0584 79.5588 56.7425 78.1473 57.7551L75.885 52.6456C74.4807 49.4754 74.7712 45.8475 76.6626 42.9405ZM84.5081 73.7796C84.4924 73.7786 84.4767 73.7778 84.4613 73.7773C83.1608 73.7197 81.9135 73.2879 80.8548 72.5286C80.8315 72.5121 80.8082 72.4959 80.7847 72.4802C79.039 71.2033 77.9995 69.1611 77.9995 67.0009C77.9995 66.9051 78.001 66.8096 78.0068 66.7138C78.0078 66.7007 78.0084 66.6873 78.0089 66.674C78.0691 65.3672 78.5007 64.1188 79.2612 63.0583C80.5326 61.2758 82.5979 60.2108 84.7856 60.2108C84.8803 60.2108 84.9751 60.2121 85.0698 60.2182C85.0839 60.2192 85.0981 60.2197 85.1122 60.2205C86.4169 60.2805 87.6642 60.7126 88.7263 61.4739C90.5101 62.7438 91.5753 64.8098 91.5753 67.0003C91.5753 67.0946 91.5738 67.189 91.568 67.2809C91.567 67.2953 91.5664 67.3097 91.5657 67.3238C91.5057 68.6277 91.0742 69.8764 90.3162 70.9363C89.0432 72.7213 86.9756 73.7867 84.7858 73.7867C84.6919 73.787 84.5997 73.7854 84.5081 73.7796ZM92.914 91.0565C91.451 93.3054 89.2057 94.8527 86.6592 95.4382V78.2273C88.3863 77.9378 90.0181 77.2527 91.4298 76.2395L93.6921 81.3491C95.0973 84.5195 94.8063 88.1485 92.914 91.0565ZM96.0164 65.1293C95.7272 63.4004 95.0421 61.7678 94.029 60.3566L99.1403 58.0933C102.31 56.6886 105.938 56.9794 108.845 58.8706C111.094 60.3341 112.642 62.581 113.227 65.1291H96.0164V65.1293Z" fill="#FAF2E9"/>
<path d="M36.5266 30.4314H12.6076C11.3375 30.4314 10.3076 31.4613 10.3076 32.7314C10.3076 34.0015 11.3375 35.0314 12.6076 35.0314H36.5266C37.7967 35.0314 38.8266 34.0015 38.8266 32.7314C38.8266 31.4613 37.7972 30.4314 36.5266 30.4314Z" fill="#FAF2E9"/>
<path d="M36.5266 64.7002H12.6076C11.3375 64.7002 10.3076 65.7301 10.3076 67.0002C10.3076 68.2703 11.3375 69.3002 12.6076 69.3002H36.5266C37.7967 69.3002 38.8266 68.2703 38.8266 67.0002C38.8266 65.7301 37.7972 64.7002 36.5266 64.7002Z" fill="#FAF2E9"/>
<path d="M36.5266 87.5459H12.6076C11.3375 87.5459 10.3076 88.5758 10.3076 89.8459C10.3076 91.116 11.3375 92.1459 12.6076 92.1459H36.5266C37.7967 92.1459 38.8266 91.116 38.8266 89.8459C38.8266 88.5758 37.7972 87.5459 36.5266 87.5459Z" fill="#FAF2E9"/>
<path d="M36.5266 76.1233H12.6076C11.3375 76.1233 10.3076 77.1532 10.3076 78.4233C10.3076 79.6934 11.3375 80.7233 12.6076 80.7233H36.5266C37.7967 80.7233 38.8266 79.6934 38.8266 78.4233C38.8266 77.1532 37.7972 76.1233 36.5266 76.1233Z" fill="#FAF2E9"/>
<path d="M36.5266 98.969H12.6076C11.3375 98.969 10.3076 99.9989 10.3076 101.269C10.3076 102.539 11.3375 103.569 12.6076 103.569H36.5266C37.7967 103.569 38.8266 102.539 38.8266 101.269C38.8266 99.9989 37.7972 98.969 36.5266 98.969Z" fill="#FAF2E9"/>
<path d="M36.5266 53.2776H33.9201C32.65 53.2776 31.6201 54.3075 31.6201 55.5776C31.6201 56.8477 32.65 57.8776 33.9201 57.8776H36.5266C37.7967 57.8776 38.8265 56.8477 38.8265 55.5776C38.8265 54.3075 37.7972 53.2776 36.5266 53.2776Z" fill="#FAF2E9"/>
<path d="M26.2536 53.2776H12.6076C11.3375 53.2776 10.3076 54.3075 10.3076 55.5776C10.3076 56.8477 11.3375 57.8776 12.6076 57.8776H26.2536C27.5237 57.8776 28.5536 56.8477 28.5536 55.5776C28.5536 54.3075 27.5237 53.2776 26.2536 53.2776Z" fill="#FAF2E9"/>
<path d="M36.5266 41.8542H12.6076C11.3375 41.8542 10.3076 42.8841 10.3076 44.1542C10.3076 45.4244 11.3375 46.4542 12.6076 46.4542H36.5266C37.7967 46.4542 38.8266 45.4244 38.8266 44.1542C38.8266 42.8838 37.7972 41.8542 36.5266 41.8542Z" fill="#FAF2E9"/>
</g>
<defs>
<clipPath id="clip0_124_605">
<rect width="134" height="134" fill="white"/>
</clipPath>
</defs>
</svg>
