<svg width="105" height="115" viewBox="0 0 105 115" fill="none" xmlns="http://www.w3.org/2000/svg">
<path d="M67.8639 74.0057C66.0368 69.4345 62.3826 64.8634 59.7724 61.7208C60.8165 60.0066 61.5995 57.7211 61.8605 55.4355C64.2097 55.4355 67.0809 56.2926 73.6062 62.0065C73.8672 62.2922 74.3893 62.5779 74.9113 63.1493C78.3045 66.0062 83.5248 70.863 89.7891 70.863C92.1383 70.863 94.7484 70.0059 97.3586 68.2918C101.796 64.8634 104.406 58.8639 104.406 50.5787C104.406 39.7223 99.1857 24.8662 89.5281 18.0096C74.9113 7.72456 61.0775 14.2955 54.2911 25.7233C51.942 29.4373 49.8539 35.1512 48.5488 39.7223C46.7217 39.7223 45.1556 40.2937 43.5895 40.8651C42.2844 38.5796 41.2404 35.4369 42.0234 26.2947C42.0234 25.7233 42.0234 25.1519 42.2844 24.5805C42.8065 18.0096 44.1115 6.01039 33.9319 1.15359C28.9727 -1.13197 22.7083 0.0108066 16.705 4.29622C8.35248 10.2958 0 23.1521 0 35.7226C0 54.8641 12.7897 63.7207 25.0574 64.0064C25.3184 64.0064 25.3185 64.0064 25.5795 64.0064C30.0167 64.0064 34.976 62.5779 38.3692 61.7208C39.1522 63.1493 40.1963 64.0064 41.2404 65.1491C39.9353 67.4347 37.3251 70.5773 29.4947 74.0057C28.9727 74.2913 28.4506 74.2914 27.9286 74.577C22.4473 76.8626 12.0067 81.148 12.5287 93.1472C12.7897 99.1468 16.4439 104.575 22.7083 108.575C27.9286 112.003 35.498 114.289 42.8065 114.289C47.2437 114.289 51.942 113.431 55.8572 111.146C71.5181 102.575 73.0842 86.2905 67.8639 74.0057ZM41.2404 53.7214C41.2404 48.8646 44.6336 45.1505 49.0708 45.1505C53.5081 45.1505 56.9013 48.8646 56.9013 53.7214C56.9013 58.5782 53.5081 62.2922 49.0708 62.2922C44.6336 62.2922 41.2404 58.5782 41.2404 53.7214ZM58.4673 28.5802C63.6876 20.2951 74.1282 13.7241 86.657 22.5807C93.7044 27.4375 98.9247 39.4366 99.1857 50.293C99.1857 53.7214 98.6637 60.2923 94.4874 63.1493C89.0061 67.149 83.7858 63.1493 78.3045 58.2925C77.7825 58.0068 77.2604 57.4354 76.9994 57.1497C69.169 50.5787 65.2537 49.7216 61.5995 49.4359C60.5555 45.1505 57.6843 41.7222 53.7691 40.2937C54.8131 36.5797 56.6402 31.7229 58.4673 28.5802ZM25.0574 58.2925C15.9219 58.0068 5.2203 52.0072 4.95929 35.7226C4.95929 26.5804 11.2236 15.1526 19.3151 9.15303C21.9253 7.15317 27.1456 4.29622 31.5828 6.29608C37.5862 9.15303 37.5862 16.2954 36.8031 23.7234C36.8031 24.2948 36.8031 25.1519 36.5421 25.7233C35.7591 37.1511 37.5862 41.1508 39.1522 44.0077C37.3251 46.579 36.0201 50.0073 36.0201 53.7214C36.0201 54.5784 36.0201 55.4355 36.2811 56.2926C33.1489 57.1497 28.7116 58.2925 25.0574 58.2925ZM25.3185 103.432C22.4473 101.718 17.749 98.004 17.749 92.5758C17.488 85.4334 23.2303 82.2908 29.7557 79.7195C30.2777 79.4338 30.7998 79.1482 31.3218 79.1482C41.2404 74.8627 44.1115 70.5773 45.6776 67.7204C46.7217 68.0061 47.7657 68.2918 49.0708 68.2918C51.681 68.2918 54.0301 67.4347 56.1182 66.0062C58.2063 68.5775 61.5995 72.8629 63.1656 76.5769C67.0808 85.7191 66.8198 98.8611 53.5081 106.289C45.9386 110.003 33.9319 108.86 25.3185 103.432Z" fill="#FAF2E9"/>
</svg>
