<svg width="141" height="141" viewBox="0 0 141 141" fill="none" xmlns="http://www.w3.org/2000/svg">
<path d="M116.968 37.5706C120.642 37.5706 123.63 40.5586 123.63 44.2329C123.63 47.9072 120.642 50.8952 116.968 50.8952C114.176 50.8952 111.788 49.1697 110.795 46.7313H106.808C105.429 46.7313 104.31 45.612 104.31 44.2329C104.31 42.8538 105.429 41.7345 106.808 41.7345H110.795C111.788 39.2961 114.176 37.5706 116.968 37.5706ZM118.634 44.2329C118.634 43.3135 117.887 42.5673 116.968 42.5673C116.049 42.5673 115.302 43.3135 115.302 44.2329C115.302 45.1523 116.049 45.8985 116.968 45.8985C117.887 45.8985 118.634 45.1523 118.634 44.2329Z" fill="#FAF2E9"/>
<path d="M115.302 128.165C117.741 129.154 119.466 131.546 119.466 134.338C119.466 138.009 116.478 141 112.804 141C109.13 141 106.142 138.009 106.142 134.338C106.142 131.546 107.867 129.154 110.306 128.165V124.178C110.306 122.795 111.425 121.679 112.804 121.679C114.183 121.679 115.302 122.795 115.302 124.178V128.165ZM114.47 134.338C114.47 133.418 113.723 132.672 112.804 132.672C111.885 132.672 111.138 133.418 111.138 134.338C111.138 135.254 111.885 136.003 112.804 136.003C113.723 136.003 114.47 135.254 114.47 134.338Z" fill="#FAF2E9"/>
<path d="M116.967 45.8983C117.887 45.8983 118.633 45.1526 118.633 44.2327C118.633 43.3128 117.887 42.5671 116.967 42.5671C116.047 42.5671 115.302 43.3128 115.302 44.2327C115.302 45.1526 116.047 45.8983 116.967 45.8983Z" fill="#FAF2E9"/>
<path d="M115.302 76.4586C115.302 77.821 115.095 79.1668 114.689 80.456C114.352 81.5186 113.366 82.2015 112.307 82.2015C112.057 82.2015 111.804 82.1615 111.554 82.0849C110.238 81.6685 109.509 80.2628 109.922 78.9469C110.175 78.1475 110.305 77.3113 110.305 76.4586C110.305 74.1734 109.389 72.0448 107.727 70.4725C106.724 69.5231 106.681 67.9408 107.63 66.9414C108.579 65.9387 110.162 65.8954 111.161 66.8448C113.793 69.3332 115.302 72.8376 115.302 76.4586Z" fill="#FAF2E9"/>
<path d="M112.803 132.672C113.723 132.672 114.469 133.418 114.469 134.338C114.469 135.254 113.723 136.003 112.803 136.003C111.884 136.003 111.138 135.254 111.138 134.338C111.138 133.418 111.884 132.672 112.803 132.672Z" fill="#FAF2E9"/>
<path d="M113.533 112.818C114.226 114.011 113.817 115.54 112.621 116.229C112.228 116.456 111.798 116.566 111.375 116.566C110.509 116.566 109.669 116.116 109.206 115.317C107.737 112.768 104.999 111.186 102.061 111.186H101.291C99.9122 111.186 98.793 110.067 98.793 108.688C98.793 107.308 99.9122 106.189 101.291 106.189H102.061C106.778 106.189 111.175 108.728 113.533 112.818Z" fill="#FAF2E9"/>
<path d="M107.627 85.9858C108.034 87.3049 107.298 88.704 105.978 89.1104C104.713 89.5035 103.397 89.7 102.061 89.7H93.2601C91.8777 89.7 90.7617 88.5808 90.7617 87.2016C90.7617 85.8225 91.8777 84.7033 93.2601 84.7033H102.061C102.894 84.7033 103.717 84.58 104.503 84.3368C105.819 83.9304 107.221 84.67 107.627 85.9858Z" fill="#FAF2E9"/>
<path d="M99.8456 63.2205C101.225 63.2205 102.344 64.3364 102.344 65.7188C102.344 67.0979 101.225 68.2172 99.8456 68.2172H87.8167C86.4343 68.2172 85.3184 67.0979 85.3184 65.7188C85.3184 64.3364 86.4343 63.2205 87.8167 63.2205H99.8456Z" fill="#FAF2E9"/>
<path d="M99.079 11.0678C99.9751 12.3436 101.201 14.0892 101.201 17.2504C101.201 20.4151 99.9751 22.1573 99.0823 23.4331C98.7492 23.9061 98.4627 24.3125 98.2595 24.7489C97.8331 25.655 96.9337 26.1846 95.9943 26.1846C95.6412 26.1846 95.2782 26.1114 94.935 25.9481C93.6859 25.3618 93.1495 23.8728 93.7358 22.6236C94.1256 21.7975 94.5853 21.1413 94.9917 20.5616C95.7478 19.4857 96.2042 18.8361 96.2042 17.2504C96.2042 15.6681 95.7478 15.0152 94.9917 13.9393C94.0956 12.6634 92.873 10.9212 92.873 7.75662C92.873 4.59534 94.0956 2.84981 94.9917 1.57731C95.1016 1.42074 95.2115 1.26418 95.3181 1.10428C96.091 -0.0416413 97.6433 -0.344778 98.7859 0.428053C99.9318 1.19755 100.235 2.74988 99.4621 3.8958C99.3355 4.08234 99.2089 4.26556 99.079 4.44544C98.3262 5.52474 97.8698 6.17432 97.8698 7.75662C97.8698 9.34226 98.3262 9.99183 99.079 11.0678Z" fill="#FAF2E9"/>
<path d="M96.3782 41.7344C97.7573 41.7344 98.8766 42.8536 98.8766 44.2328C98.8766 45.6119 97.7573 46.7311 96.3782 46.7311H84.346C82.9669 46.7311 81.8477 45.6119 81.8477 44.2328C81.8477 42.8536 82.9669 41.7344 84.346 41.7344H96.3782Z" fill="#FAF2E9"/>
<path d="M90.9348 106.189C92.314 106.189 93.4332 107.308 93.4332 108.688C93.4332 110.067 92.314 111.186 90.9348 111.186H78.9027C77.5236 111.186 76.4043 110.067 76.4043 108.688C76.4043 107.308 77.5236 106.189 78.9027 106.189H90.9348Z" fill="#FAF2E9"/>
<path d="M82.8997 84.7031C84.2788 84.7031 85.3981 85.8224 85.3981 87.2015C85.3981 88.5806 84.2788 89.6999 82.8997 89.6999H70.8675C69.4884 89.6999 68.3691 88.5806 68.3691 87.2015C68.3691 85.8224 69.4884 84.7031 70.8675 84.7031H82.8997Z" fill="#FAF2E9"/>
<path d="M77.4563 63.2205C78.8354 63.2205 79.9547 64.3364 79.9547 65.7188C79.9547 67.0979 78.8354 68.2172 77.4563 68.2172H65.4242C64.0451 68.2172 62.9258 67.0979 62.9258 65.7188C62.9258 64.3364 64.0451 63.2205 65.4242 63.2205H77.4563Z" fill="#FAF2E9"/>
<path d="M73.9852 41.7344C75.3643 41.7344 76.4836 42.8536 76.4836 44.2328C76.4836 45.6119 75.3643 46.7311 73.9852 46.7311H61.9564C60.5773 46.7311 59.458 45.6119 59.458 44.2328C59.458 42.8536 60.5773 41.7344 61.9564 41.7344H73.9852Z" fill="#FAF2E9"/>
<path d="M68.5428 106.189C69.922 106.189 71.0412 107.308 71.0412 108.688C71.0412 110.067 69.922 111.186 68.5428 111.186H56.514C55.1316 111.186 54.0156 110.067 54.0156 108.688C54.0156 107.308 55.1316 106.189 56.514 106.189H68.5428Z" fill="#FAF2E9"/>
<path d="M68.3831 11.0678C69.2759 12.3436 70.5017 14.0892 70.5017 17.2504C70.5017 20.4151 69.2759 22.1573 68.3831 23.4331C68.05 23.9061 67.7635 24.3125 67.5603 24.7489C67.1339 25.655 66.2345 26.1846 65.2951 26.1846C64.942 26.1846 64.5789 26.1114 64.2358 25.9481C62.9866 25.3618 62.4503 23.8728 63.0366 22.6236C63.4263 21.7975 63.886 21.1413 64.2925 20.5616C65.0486 19.4857 65.505 18.8361 65.505 17.2504C65.505 15.6681 65.0486 15.0152 64.2925 13.9393C63.3964 12.6634 62.1738 10.9212 62.1738 7.75662C62.1738 4.59534 63.3964 2.84981 64.2925 1.57731C64.4024 1.42074 64.5123 1.26418 64.6189 1.10428C65.3884 -0.0416413 66.9441 -0.344778 68.0867 0.428053C69.2326 1.19755 69.5357 2.74988 68.7629 3.8958C68.6363 4.08234 68.5097 4.26223 68.3831 4.44544C67.6269 5.52474 67.1706 6.17432 67.1706 7.75662C67.1706 9.34226 67.6269 9.99183 68.3831 11.0678Z" fill="#FAF2E9"/>
<path d="M60.5077 84.7031C61.8901 84.7031 63.0061 85.8224 63.0061 87.2015C63.0061 88.5806 61.8901 89.6999 60.5077 89.6999H48.4788C47.0997 89.6999 45.9805 88.5806 45.9805 87.2015C45.9805 85.8224 47.0997 84.7031 48.4788 84.7031H60.5077Z" fill="#FAF2E9"/>
<path d="M55.0643 63.2205C56.4468 63.2205 57.5627 64.3364 57.5627 65.7188C57.5627 67.0979 56.4468 68.2172 55.0643 68.2172H43.0355C41.6564 68.2172 40.5371 67.0979 40.5371 65.7188C40.5371 64.3364 41.6564 63.2205 43.0355 63.2205H55.0643Z" fill="#FAF2E9"/>
<path d="M51.597 41.7344C52.9761 41.7344 54.0953 42.8536 54.0953 44.2328C54.0953 45.6119 52.9761 46.7311 51.597 46.7311H39.5648C38.1857 46.7311 37.0664 45.6119 37.0664 44.2328C37.0664 42.8536 38.1857 41.7344 39.5648 41.7344H51.597Z" fill="#FAF2E9"/>
<path d="M46.1536 106.189C47.5327 106.189 48.652 107.308 48.652 108.688C48.652 110.067 47.5327 111.186 46.1536 111.186H34.1214C32.7423 111.186 31.623 110.067 31.623 108.688C31.623 107.308 32.7423 106.189 34.1214 106.189H46.1536Z" fill="#FAF2E9"/>
<path d="M38.1194 84.7031C39.4985 84.7031 40.6178 85.8224 40.6178 87.2015C40.6178 88.5806 39.4985 89.6999 38.1194 89.6999H30.611C29.4384 89.6999 28.3058 89.943 27.2432 90.4161C26.9134 90.566 26.5636 90.6359 26.2238 90.6359C25.2678 90.6359 24.3584 90.0863 23.942 89.1602C23.379 87.901 23.942 86.422 25.2012 85.859C26.9067 85.0929 28.7289 84.7031 30.611 84.7031H38.1194Z" fill="#FAF2E9"/>
<path d="M37.6829 11.0677C38.5757 12.3436 39.8016 14.0891 39.8016 17.2504C39.8016 20.415 38.5757 22.1572 37.6829 23.433C37.3498 23.9061 37.0633 24.3125 36.8601 24.7488C36.4337 25.6549 35.5343 26.1846 34.5949 26.1846C34.2418 26.1846 33.8787 26.1113 33.5356 25.9481C32.2864 25.3618 31.7501 23.8727 32.3364 22.6236C32.7262 21.7974 33.1859 21.1412 33.5923 20.5616C34.3484 19.4856 34.8048 18.836 34.8048 17.2504C34.8048 15.6681 34.3484 15.0152 33.5923 13.9392C32.6962 12.6634 31.4736 10.9212 31.4736 7.75655C31.4736 4.59527 32.6962 2.84974 33.5923 1.57391C33.7022 1.41734 33.8121 1.26078 33.9187 1.10088C34.6915 -0.0417106 36.2439 -0.344847 37.3865 0.427984C38.5324 1.19748 38.8355 2.74981 38.0627 3.89573C37.9394 4.08227 37.8095 4.26216 37.6829 4.44537C36.9268 5.52467 36.4704 6.17425 36.4704 7.75655C36.4704 9.34219 36.9268 9.99176 37.6829 11.0677Z" fill="#FAF2E9"/>
<path d="M32.6757 63.2205C34.0548 63.2205 35.1741 64.3364 35.1741 65.7189C35.1741 67.098 34.0548 68.2173 32.6757 68.2173H30.6104C26.4064 68.2173 22.5456 66.2852 20.0173 62.9207C19.1911 61.8181 19.411 60.2524 20.5169 59.423C21.6196 58.5935 23.1852 58.8167 24.0147 59.9193C25.587 62.018 27.9921 63.2205 30.6104 63.2205H32.6757Z" fill="#FAF2E9"/>
<path d="M31.6869 43.9996C31.8668 45.3687 30.9007 46.6212 29.535 46.8011C26.4236 47.2042 23.7754 49.3927 22.786 52.3775C22.4362 53.4234 21.4602 54.0897 20.4142 54.0897C20.1544 54.0897 19.8879 54.0464 19.6281 53.9598C18.3156 53.5267 17.6094 52.111 18.0424 50.8018C19.6314 46.0116 23.8886 42.4972 28.8887 41.8443C30.2545 41.6678 31.5103 42.6338 31.6869 43.9996Z" fill="#FAF2E9"/>
<path d="M25.7071 104.574C26.8163 105.393 27.0495 106.959 26.2267 108.068C25.737 108.728 24.9809 109.077 24.218 109.077C23.6984 109.077 23.1787 108.918 22.7323 108.588C19.3745 106.096 17.3691 102.119 17.3691 97.9447C17.3691 97.1252 17.4458 96.3024 17.5957 95.4996C17.8488 94.1438 19.1546 93.2478 20.5104 93.5043C21.8662 93.7574 22.7623 95.0599 22.5091 96.419C22.4159 96.9187 22.3659 97.4317 22.3659 97.9447C22.3659 100.583 23.5851 102.998 25.7071 104.574Z" fill="#FAF2E9"/>
</svg>
