<svg width="135" height="135" viewBox="0 0 135 135" fill="none" xmlns="http://www.w3.org/2000/svg">
<path d="M29.862 27.854H25.7295V31.9865H29.862V27.854Z" fill="#FAF2E9"/>
<path d="M27.3333 14.3195V6.19897H9.2802V14.3193H0V59.0536H4.06107V120.536H92.7368V116.403H74.3879V75.0767H39.9489V116.403H8.1936V59.0533H26.7028L56.0084 29.748L85.3137 59.0533H106.143V77.4924H110.275V59.0533H114.337V14.3195H27.3333ZM44.0817 79.2092H70.2551V116.403H44.0817V79.2092ZM13.413 10.3318H23.2008V21.9821L13.413 30.8726V10.3318ZM24.9913 54.9208H4.13253V45.5198H34.392L24.9913 54.9208ZM110.204 54.9208H87.0254L77.6245 45.5198H84.8765V41.3873H73.4919L64.0915 31.9869H110.204L110.204 54.9208ZM110.204 27.8541H59.9585L56.0084 23.9037L52.0581 27.8541H35.3726V31.9866H47.9255L38.5251 41.387H4.13253V18.4521H9.2802V40.2095L27.3333 23.8112V18.4521H110.204V27.8541Z" fill="#FAF2E9"/>
<path d="M108.04 89.8269C104.715 89.8269 102.01 92.5319 102.01 95.8568C102.01 98.4564 103.663 100.676 105.973 101.522V128.801H110.106V101.522C112.416 100.676 114.07 98.4558 114.07 95.8566C114.07 92.5317 111.365 89.8269 108.04 89.8269ZM108.04 97.7539C106.993 97.7539 106.143 96.9028 106.143 95.8568C106.143 94.8108 106.994 93.9597 108.04 93.9597C109.086 93.9597 109.937 94.8108 109.937 95.8568C109.937 96.9031 109.086 97.7539 108.04 97.7539Z" fill="#FAF2E9"/>
<path d="M128.97 61.0256C125.645 61.0256 122.94 63.7306 122.94 67.0555C122.94 69.6553 124.593 71.8757 126.904 72.7208L126.903 104.665L119.826 111.743V87.1212C122.136 86.2759 123.789 84.0555 123.789 81.4565C123.789 78.1316 121.084 75.4266 117.759 75.4266C114.434 75.4266 111.729 78.1316 111.729 81.4565C111.729 84.0561 113.383 86.2759 115.693 87.1215V128.801H119.826V117.587L131.036 106.376L131.037 72.7197C133.346 71.8744 134.999 69.6546 134.999 67.0553C135 63.7306 132.295 61.0256 128.97 61.0256ZM117.759 83.3531C116.713 83.3531 115.862 82.502 115.862 81.456C115.862 80.41 116.713 79.5589 117.759 79.5589C118.805 79.5589 119.657 80.41 119.657 81.456C119.657 82.502 118.805 83.3531 117.759 83.3531ZM128.97 68.9527C127.924 68.9527 127.073 68.1015 127.073 67.0555C127.073 66.0096 127.924 65.1584 128.97 65.1584C130.016 65.1584 130.867 66.0096 130.867 67.0555C130.867 68.1015 130.016 68.9527 128.97 68.9527Z" fill="#FAF2E9"/>
<path d="M89.6468 104.665L89.646 87.2533C91.9569 86.4082 93.6103 84.1876 93.6103 81.588C93.6103 78.2631 90.9053 75.5581 87.5804 75.5581C84.2555 75.5581 81.5508 78.2631 81.5508 81.588C81.5508 84.187 83.2035 86.4069 85.5135 87.2525L85.5143 106.376L96.7246 117.587V128.801H100.857V115.876L89.6468 104.665ZM87.5804 83.4854C86.5342 83.4854 85.6833 82.6343 85.6833 81.5883C85.6833 80.5423 86.5344 79.6912 87.5804 79.6912C88.6264 79.6912 89.4775 80.5423 89.4775 81.5883C89.4775 82.6343 88.6267 83.4854 87.5804 83.4854Z" fill="#FAF2E9"/>
<path d="M104.162 41.3872H100.029V45.5197H104.162V41.3872Z" fill="#FAF2E9"/>
<path d="M94.5192 41.3872H90.3867V45.5197H94.5192V41.3872Z" fill="#FAF2E9"/>
</svg>
