<svg width="64" height="64" viewBox="0 0 64 64" fill="none" xmlns="http://www.w3.org/2000/svg">
<rect width="64" height="64" rx="5" fill="#55694B"/>
<path d="M30.4959 44.5023V43.5352C30.2347 43.5352 30.0222 43.7479 30.0222 44.0091V43.8347L30.1334 43.7005C30.7217 42.9905 31.3365 42.319 31.9605 41.7048C32.239 41.4263 32.4812 41.1967 32.7201 40.9854C37.9958 36.1004 44.8846 33.4061 52.1098 33.4061L52.5382 33.4124L52.5237 34.3792L52.1026 34.373C45.1291 34.373 38.4735 36.9759 33.369 41.7023C33.137 41.9076 32.9085 42.1241 32.6416 42.3912C32.0468 42.9768 31.4627 43.6138 30.9027 44.2878C30.8137 44.4172 30.6646 44.5023 30.4959 44.5023ZM24.4866 61.9961H23.5195C23.5195 58.2067 24.2502 54.5232 25.6914 51.0478C25.898 50.5461 26.1254 50.0412 26.3668 49.5482C26.4622 49.3481 26.5629 49.1368 26.685 48.9214C26.8516 48.5787 27.0214 48.2622 27.2042 47.9544L28.0356 48.448C27.8645 48.7365 27.7049 49.0341 27.5482 49.3576L27.5328 49.3868C27.4247 49.5757 27.3339 49.7667 27.2375 49.9688C27.003 50.4478 26.7842 50.9335 26.5852 51.4171C25.1924 54.7756 24.4866 58.3345 24.4866 61.9961ZM29.7511 61.9961H28.784C28.784 60.8108 28.8726 59.6275 29.0473 58.4788L29.0529 58.4125C29.494 55.571 30.4454 52.8709 31.8811 50.3868C32.7841 48.7986 33.8712 47.3365 35.1105 46.0432C35.1614 45.9723 35.2169 45.9143 35.263 45.866C35.2816 45.8465 35.3005 45.827 35.3185 45.8064L35.3347 45.7886C39.769 41.1984 45.7264 38.6705 52.1098 38.6705H52.531V39.6374H52.1098C45.9949 39.6374 40.2873 42.0578 36.0378 46.4527C36.0131 46.4804 35.9876 46.5075 35.9622 46.534C35.9384 46.5588 35.9059 46.5929 35.8967 46.6064L35.87 46.6489L35.836 46.684C34.6403 47.9266 33.592 49.3343 32.72 50.8678C31.349 53.2399 30.4393 55.8149 30.0143 58.5241L30.0087 58.5891C29.8377 59.7009 29.7511 60.8471 29.7511 61.9961Z" fill="white"/>
<path d="M35.1917 61.9961H34.2246C34.2246 60.7774 34.3427 59.5805 34.5756 58.4374L34.5855 58.3791C35.1437 55.6669 36.35 53.0915 38.0739 50.9314C38.315 50.6188 38.5991 50.2884 38.9375 49.9274C42.3054 46.2385 47.1082 44.12 52.1103 44.12H52.5315V45.087H52.1103C47.3794 45.087 42.8367 47.0907 39.6474 50.5841C39.3259 50.927 39.0615 51.2344 38.8346 51.5284C37.2105 53.5635 36.0744 55.9804 35.5425 58.5266L35.5326 58.5846C35.3064 59.6779 35.1917 60.8257 35.1917 61.9961Z" fill="white"/>
<path d="M41.0803 61.9961H40.1133C40.1133 58.3426 41.7463 54.9361 44.5937 52.6499C46.729 50.9161 49.329 49.9988 52.1106 49.9988H52.5318V50.9658H52.1106C49.5535 50.9658 47.1643 51.8083 45.2012 53.4023C42.5815 55.5056 41.0803 58.6374 41.0803 61.9961Z" fill="white"/>
<path d="M24.487 61.9961H23.52C23.52 58.2067 24.2507 54.5232 25.6919 51.0478C25.8985 50.5461 26.1258 50.0411 26.3672 49.5482C26.4626 49.3481 26.5633 49.1368 26.6855 48.9214C26.8495 48.5838 27.0168 48.2717 27.1964 47.9684C27.2107 47.9402 27.2317 47.9009 27.254 47.8653C27.625 47.2003 28.051 46.5216 28.5203 45.8481C29.0205 45.1125 29.561 44.3919 30.1236 43.7108L30.2719 43.5352C30.7077 43.0174 31.1571 42.521 31.6133 42.054C31.4832 41.9302 31.3603 41.817 31.2387 41.7096C26.1262 36.9759 19.4706 34.373 12.4898 34.373H12.0605V33.4061H12.4898C19.7149 33.4061 26.6039 36.1003 31.8876 40.9927C32.118 41.1964 32.3602 41.4258 32.642 41.7075L32.9866 42.0521L32.6392 42.394C32.0472 42.9768 31.4631 43.6138 30.9031 44.2878C30.884 44.3156 30.8621 44.3414 30.8378 44.3648C30.3055 45.0116 29.7939 45.6948 29.3169 46.3964C28.8599 47.0524 28.4487 47.7077 28.0916 48.3487L28.0711 48.3823C28.065 48.3926 28.0538 48.4154 28.0527 48.4177L28.0362 48.448C27.8649 48.7365 27.7055 49.0341 27.5486 49.3576L27.5333 49.3868C27.4253 49.5757 27.3344 49.7667 27.2381 49.9688C27.0035 50.4478 26.7848 50.9334 26.5858 51.4171C25.1929 54.7756 24.487 58.3345 24.487 61.9961Z" fill="white"/>
<path d="M28.5694 46.4609C24.3191 42.0611 18.6086 39.6379 12.4899 39.6379H12.0605V38.6709H12.4899C18.8733 38.6709 24.8307 41.1988 29.2649 45.789L28.5694 46.4609Z" fill="white"/>
<path d="M24.487 61.9961H23.52C23.52 58.3025 24.2141 54.7097 25.5839 51.312C25.3976 51.0835 25.1875 50.845 24.9474 50.5888C21.7536 47.0907 17.2146 45.087 12.4898 45.087H12.0605V44.12H12.4898C17.4857 44.12 22.285 46.2385 25.6572 49.9321C25.9912 50.2884 26.2754 50.6188 26.5214 50.9376L26.6926 51.1594L26.5852 51.4182C25.1929 54.7756 24.487 58.3345 24.487 61.9961Z" fill="white"/>
<path d="M24.4828 62H23.5158C23.5158 55.9177 18.5675 50.9695 12.4853 50.9695H12.0605V50.0025H12.4853C19.1008 50.0025 24.4828 55.3845 24.4828 62Z" fill="white"/>
<path d="M32.7842 36.3076H31.8172C31.8172 26.9839 24.2274 19.3985 14.8984 19.3985V18.4315C24.7606 18.4315 32.7842 26.4507 32.7842 36.3076Z" fill="white"/>
<path d="M32.7835 42.0498H31.8164V36.3077C31.8164 26.4507 39.8355 18.4315 49.6923 18.4315V19.3986C40.3687 19.3986 32.7835 26.984 32.7835 36.3077V42.0498Z" fill="white"/>
<path d="M28.0959 31.0185C28.0959 32.3404 27.0242 33.4121 25.7023 33.4121C24.3803 33.4121 23.3086 32.3404 23.3086 31.0185C23.3086 29.6966 24.3803 28.6249 25.7023 28.6249C27.0242 28.6249 28.0959 29.6966 28.0959 31.0185Z" fill="white"/>
<path d="M41.2834 31.0185C41.2834 32.3404 40.2117 33.4121 38.8898 33.4121C37.5678 33.4121 36.4961 32.3404 36.4961 31.0185C36.4961 29.6966 37.5678 28.6249 38.8898 28.6249C40.2117 28.6249 41.2834 29.6966 41.2834 31.0185Z" fill="white"/>
<path d="M34.6896 22.0761C34.6896 23.3981 33.618 24.4697 32.296 24.4697C30.974 24.4697 29.9023 23.3981 29.9023 22.0761C29.9023 20.7542 30.974 19.6825 32.296 19.6825C33.618 19.6825 34.6896 20.7542 34.6896 22.0761Z" fill="white"/>
<path d="M52.5921 28.625H51.6251V16.0964C51.6251 15.5035 51.328 14.9572 50.8301 14.6351L33.2349 3.24568C32.66 2.87353 31.9173 2.8738 31.3427 3.24604L13.7613 14.6349C13.264 14.957 12.9671 15.5032 12.9671 16.0958V28.625H12V16.0958C12 15.174 12.462 14.3245 13.2356 13.8232L30.8169 2.43441C31.711 1.8554 32.8661 1.85495 33.7605 2.43386L51.3557 13.8233C52.1299 14.3244 52.5921 15.1741 52.5921 16.0964V28.625Z" fill="white"/>
</svg>
